Wiley ft. Ms D - Heatwave - HD music video


Format                                   : MPEG-4
Format profile                           : Base Media / Version 2
Codec ID                                 : mp42
File size                                : 302 MiB
Duration                                 : 3mn 20s
Overall bit rate mode                    : Variable
Overall bit rate                         : 12.6 Mbps

Video
ID                                       : 1
Format                                   : AVC
Format/Info                              : Advanced Video Codec
Format profile                           : Main@L4.0
Format settings, CABAC                   : Yes
Format settings, ReFrames                : 2 frames
Codec ID                                 : avc1
Codec ID/Info                            : Advanced Video Coding
Duration                                 : 3mn 20s
Bit rate mode                            : Variable
Bit rate                                 : 12.4 Mbps
Maximum bit rate                         : 32.2 Mbps
Width                                    : 1920 pixels
Height                                   : 1080 pixels
Display aspect ratio                     : 16:9
Frame rate mode                          : Constant
Frame rate                               : 25.000 fps
Standard                                 : PAL
Color space                              : YUV
Chroma subsampling                       : 4:2:0
Bit depth                                : 8 bits
Scan type                                : Progressive
Bits/(Pixel*Frame)                       : 0.240
Stream size                              : 298 MiB (99%)
Language                                 : English

Audio
ID                                       : 2
Format                                   : AAC
Format/Info                              : Advanced Audio Codec
Format profile                           : LC
Codec ID                                 : 40
Duration                                 : 3mn 20s
Bit rate mode                            : Variable
Bit rate                                 : 158 Kbps
Maximum bit rate                         : 176 Kbps
Channel(s)                               : 2 channels
Channel positions                        : Front: L R
Sampling rate                            : 44.1 KHz
Compression mode                         : Lossy
Delay relative to video                  : 23ms
Stream size                              : 3.78 MiB (1%)
Language                                 : English
